<?xml version="1.0" standalone="no"?>
<!DOCTYPE svg PUBLIC "-//W3C//DTD SVG 20010904//EN"
 "http://www.w3.org/TR/2001/REC-SVG-20010904/DTD/svg10.dtd">
<svg version="1.0" xmlns="http://www.w3.org/2000/svg"
 width="148.000000pt" height="148.000000pt" viewBox="0 0 148.000000 148.000000"
 preserveAspectRatio="xMidYMid meet">

<g transform="translate(0.000000,148.000000) scale(0.100000,-0.100000)"
fill="#000000" stroke="none">
<path d="M709 1441 c-19 -55 -37 -63 -45 -22 -11 51 -28 50 -20 -1 7 -49 -1
-63 -44 -70 -16 -2 -24 -9 -21 -18 2 -8 6 -31 9 -51 3 -32 -1 -39 -45 -76 -46
-39 -112 -83 -123 -83 -3 0 -5 32 -4 71 1 69 10 88 40 89 6 0 17 7 24 15 15
18 -1 21 -31 5 -14 -8 -27 -6 -50 5 -31 16 -56 12 -29 -5 8 -5 11 -12 7 -16
-4 -4 -28 2 -53 15 -26 12 -48 20 -50 18 -3 -2 20 -25 50 -50 59 -51 72 -84
57 -150 -5 -21 -11 -40 -13 -42 -7 -7 -136 33 -164 51 l-29 18 19 -22 c25 -29
5 -29 -43 0 l-36 21 24 -26 c22 -25 38 -30 159 -53 32 -6 27 -29 -13 -53 -34
-20 -39 -20 -98 -6 -84 20 -98 19 -68 -4 23 -18 23 -18 3 -23 -12 -4 -40 -2
-63 3 -48 11 -64 4 -25 -11 36 -13 92 -13 132 2 17 6 39 8 48 5 15 -6 13 -12
-16 -47 -18 -22 -59 -57 -91 -76 -59 -37 -71 -58 -37 -69 11 -3 20 -11 20 -16
0 -7 34 -8 99 -4 l99 7 20 -38 c24 -46 42 -63 102 -93 63 -32 188 -165 196
-210 7 -36 -7 -149 -32 -263 -12 -50 -24 -76 -50 -103 -19 -20 -34 -43 -34
-51 0 -19 73 -19 90 1 7 8 18 15 26 15 9 0 11 10 7 34 -7 45 74 373 98 397 24
24 106 39 251 46 l128 6 33 -37 c96 -105 115 -202 63 -332 -18 -47 -39 -80
-57 -93 -16 -12 -29 -28 -29 -36 0 -21 57 -19 100 3 31 15 34 21 30 47 -4 18
4 60 18 105 25 77 30 158 17 237 -7 39 -5 44 28 73 44 38 95 116 103 158 9 47
24 50 24 5 0 -42 23 -83 46 -83 11 0 12 4 4 19 -5 11 -10 54 -10 96 0 72 -2
78 -29 103 -57 53 -130 107 -153 114 -47 13 -141 7 -219 -13 -87 -22 -112 -21
-238 13 -96 26 -198 22 -259 -10 -54 -28 -64 -28 -123 6 -52 29 -61 52 -34 88
8 10 15 22 15 27 0 13 -45 8 -66 -8 -10 -8 -25 -15 -33 -15 -25 0 9 29 131
112 134 91 165 125 174 192 7 45 8 47 51 58 47 11 97 53 106 88 5 20 4 21 -18
6 -32 -21 -33 -21 -37 17 l-3 32 -16 -44z"/>
<path d="M1331 466 l-33 -34 29 -44 c48 -71 56 -101 50 -186 -4 -62 -10 -86
-31 -116 -14 -21 -26 -43 -26 -47 0 -5 17 -9 38 -9 62 0 67 14 70 183 3 135 1
151 -18 181 -11 19 -26 50 -33 70 l-12 37 -34 -35z"/>
<path d="M792 457 c-37 -9 -43 -13 -38 -31 3 -12 10 -54 17 -94 11 -67 10 -79
-10 -145 -12 -40 -31 -89 -41 -109 -11 -20 -20 -39 -20 -42 0 -4 18 -6 40 -6
63 0 75 19 76 120 0 47 6 136 12 199 6 63 11 115 9 116 -1 1 -21 -3 -45 -8z"/>
</g>
</svg>
