<?xml version="1.0" standalone="no"?>
<!DOCTYPE svg PUBLIC "-//W3C//DTD SVG 20010904//EN"
 "http://www.w3.org/TR/2001/REC-SVG-20010904/DTD/svg10.dtd">
<svg version="1.0" xmlns="http://www.w3.org/2000/svg"
 width="264.000000pt" height="191.000000pt" viewBox="0 0 264.000000 191.000000"
 preserveAspectRatio="xMidYMid meet">

<g transform="translate(0.000000,191.000000) scale(0.100000,-0.100000)"
fill="#000000" stroke="none">
<path d="M1222 1764 c-71 -19 -99 -34 -160 -89 -33 -30 -63 -70 -84 -113 -31
-62 -33 -74 -33 -167 0 -88 3 -107 27 -157 92 -197 319 -281 512 -190 152 72
241 237 216 399 -14 87 -42 145 -97 204 -104 111 -239 152 -381 113z"/>
<path d="M499 1625 c-56 -18 -142 -92 -172 -149 -32 -60 -32 -203 1 -263 51
-96 137 -153 243 -161 122 -9 230 52 286 162 35 68 38 178 7 247 -63 137 -224
209 -365 164z"/>
<path d="M1962 1625 c-99 -31 -170 -108 -198 -214 -33 -132 27 -264 150 -329
44 -23 63 -27 136 -27 76 0 91 3 139 30 101 56 153 146 153 266 0 48 -7 74
-32 125 -64 130 -209 193 -348 149z"/>
<path d="M237 1020 c-67 -70 -122 -168 -148 -260 -20 -70 -18 -248 3 -286 21
-38 69 -80 113 -98 49 -21 162 -36 262 -36 l88 0 2 103 c2 178 55 349 151 491
l49 72 -51 -18 c-107 -37 -247 -12 -344 62 -29 22 -54 40 -56 40 -2 0 -33 -31
-69 -70z"/>
<path d="M2290 1058 c-91 -79 -238 -109 -351 -71 l-55 19 43 -63 c102 -145
155 -312 157 -490 l1 -113 122 0 c271 0 352 54 361 243 7 145 -37 285 -129
404 -34 43 -99 104 -111 103 -2 -1 -19 -15 -38 -32z"/>
<path d="M873 992 c-128 -128 -201 -282 -224 -475 -29 -234 44 -355 245 -403
58 -14 133 -18 403 -22 458 -6 548 9 632 104 52 59 66 115 65 254 -1 211 -74
389 -221 538 l-82 83 -56 -46 c-99 -80 -195 -115 -315 -115 -119 1 -217 37
-315 116 l-54 45 -78 -79z"/>
</g>
</svg>
