<?xml version="1.0" standalone="no"?>
<!DOCTYPE svg PUBLIC "-//W3C//DTD SVG 20010904//EN"
 "http://www.w3.org/TR/2001/REC-SVG-20010904/DTD/svg10.dtd">
<svg version="1.0" xmlns="http://www.w3.org/2000/svg"
 width="200.000000pt" height="200.000000pt" viewBox="0 0 200.000000 200.000000"
 preserveAspectRatio="xMidYMid meet">

<g transform="translate(0.000000,200.000000) scale(0.100000,-0.100000)"
fill="#000000" stroke="none">
<path d="M970 1708 c-31 -54 -34 -155 -7 -205 12 -23 17 -55 17 -115 l0 -83
-19 40 c-10 22 -31 53 -47 69 -47 47 -144 84 -144 55 0 -35 28 -96 62 -134 29
-33 53 -49 94 -61 l54 -18 0 -150 -1 -151 -19 49 c-48 123 -142 202 -269 226
l-44 8 6 -53 c14 -137 146 -273 282 -292 l45 -6 0 -58 c0 -52 2 -59 20 -59 18
0 20 7 20 59 l0 58 45 6 c136 19 268 155 282 292 l6 53 -44 -8 c-127 -24 -221
-103 -269 -226 l-19 -49 -1 151 0 150 54 18 c41 12 65 28 94 61 34 38 62 99
62 134 0 29 -97 -8 -144 -55 -16 -16 -37 -47 -47 -69 l-19 -40 0 75 c0 51 6
92 20 128 11 29 20 64 20 78 0 44 -21 109 -43 138 l-22 28 -25 -44z"/>
<path d="M667 723 c-4 -3 -7 -17 -7 -30 l0 -23 341 0 340 0 -3 28 -3 27 -331
3 c-182 1 -333 -1 -337 -5z"/>
<path d="M719 493 c27 -76 57 -160 68 -188 l19 -50 194 0 194 0 19 50 c11 28
41 112 68 188 l48 137 -329 0 -329 0 48 -137z"/>
</g>
</svg>
