<?xml version="1.0" encoding="UTF-8"?>
<!DOCTYPE svg PUBLIC "-//W3C//DTD SVG 1.1//EN" "http://www.w3.org/Graphics/SVG/1.1/DTD/svg11.dtd">
<svg xmlns="http://www.w3.org/2000/svg" version="1.1" width="226px" height="223px" style="shape-rendering:geometricPrecision; text-rendering:geometricPrecision; image-rendering:optimizeQuality; fill-rule:evenodd; clip-rule:evenodd" xmlns:xlink="http://www.w3.org/1999/xlink">
<g><path style="opacity:1" fill="#f5f5f5" d="M -0.5,-0.5 C 35.1667,-0.5 70.8333,-0.5 106.5,-0.5C 71.6118,8.58679 55.4451,31.2535 58,67.5C 62.2116,91.6672 74.3783,110.501 94.5,124C 107.832,129.204 120.832,128.537 133.5,122C 155.346,105.98 166.679,84.3129 167.5,57C 164.723,23.3934 146.723,4.22673 113.5,-0.5C 150.833,-0.5 188.167,-0.5 225.5,-0.5C 225.5,59.1667 225.5,118.833 225.5,178.5C 223.532,171.904 221.365,165.237 219,158.5C 217.224,155.059 215.057,151.892 212.5,149C 194.65,136.74 175.316,127.74 154.5,122C 134.355,142.092 111.355,146.092 85.5,134C 79.9891,129.819 74.4891,125.652 69,121.5C 48.3819,128.226 29.2153,137.726 11.5,150C 9.27276,152.564 7.43943,155.397 6,158.5C 3.65317,165.584 1.4865,172.584 -0.5,179.5C -0.5,119.5 -0.5,59.5 -0.5,-0.5 Z"/></g>
<g><path style="opacity:1" fill="#010101" d="M 106.5,-0.5 C 108.833,-0.5 111.167,-0.5 113.5,-0.5C 146.723,4.22673 164.723,23.3934 167.5,57C 166.679,84.3129 155.346,105.98 133.5,122C 120.832,128.537 107.832,129.204 94.5,124C 74.3783,110.501 62.2116,91.6672 58,67.5C 55.4451,31.2535 71.6118,8.58679 106.5,-0.5 Z"/></g>
<g><path style="opacity:1" fill="#010101" d="M 225.5,178.5 C 225.5,180.833 225.5,183.167 225.5,185.5C 223.22,191.626 219.22,196.459 213.5,200C 195.824,210.172 176.824,216.506 156.5,219C 144.729,220.664 133.062,221.831 121.5,222.5C 113.5,222.5 105.5,222.5 97.5,222.5C 74.1066,220.652 51.1066,216.152 28.5,209C 19.2683,205.47 11.1016,200.304 4,193.5C 2.20496,190.901 0.704964,188.234 -0.5,185.5C -0.5,183.5 -0.5,181.5 -0.5,179.5C 1.4865,172.584 3.65317,165.584 6,158.5C 7.43943,155.397 9.27276,152.564 11.5,150C 29.2153,137.726 48.3819,128.226 69,121.5C 74.4891,125.652 79.9891,129.819 85.5,134C 111.355,146.092 134.355,142.092 154.5,122C 175.316,127.74 194.65,136.74 212.5,149C 215.057,151.892 217.224,155.059 219,158.5C 221.365,165.237 223.532,171.904 225.5,178.5 Z"/></g>
<g><path style="opacity:1" fill="#f3f3f3" d="M -0.5,185.5 C 0.704964,188.234 2.20496,190.901 4,193.5C 11.1016,200.304 19.2683,205.47 28.5,209C 51.1066,216.152 74.1066,220.652 97.5,222.5C 64.8333,222.5 32.1667,222.5 -0.5,222.5C -0.5,210.167 -0.5,197.833 -0.5,185.5 Z"/></g>
<g><path style="opacity:1" fill="#f2f2f2" d="M 225.5,185.5 C 225.5,197.833 225.5,210.167 225.5,222.5C 190.833,222.5 156.167,222.5 121.5,222.5C 133.062,221.831 144.729,220.664 156.5,219C 176.824,216.506 195.824,210.172 213.5,200C 219.22,196.459 223.22,191.626 225.5,185.5 Z"/></g>
</svg>
